PathFileType	4	(X/Y/Z)	 s04c0301.trc
DataRate	CameraRate	NumFrames	NumMarkers	Units	OrigDataRate	OrigDataStartFrame	OrigNumFrames
200	200	5	50	mm	200	1751	2000
Frame#	Time	racr			lacr			c7			jug			rlel			rdr			llel			ldr			s2			lic			ric			lasi			rasi			rpsi			lpsi			rgt			lgt			rth1			rth2			rth3			rth4			rlfc			rmfc			rsh1			rsh2			rsh3			rsh4			rlmal			rmmal			rcal			rtoe			rmt5			lth1			lth2			lth4			lth3			llfc			lmfc			lsh1			lsh2			lsh3			lsh4			llmal			lmmal			lcal			ltoe			lmt5			SBIKE			LBIKE			RBIKE			
		X1	Y1	Z1	X2	Y2	Z2	X3	Y3	Z3	X4	Y4	Z4	X5	Y5	Z5	X6	Y6	Z6	X7	Y7	Z7	X8	Y8	Z8	X9	Y9	Z9	X10	Y10	Z10	X11	Y11	Z11	X12	Y12	Z12	X13	Y13	Z13	X14	Y14	Z14	X15	Y15	Z15	X16	Y16	Z16	X17	Y17	Z17	X18	Y18	Z18	X19	Y19	Z19	X20	Y20	Z20	X21	Y21	Z21	X22	Y22	Z22	X23	Y23	Z23	X24	Y24	Z24	X25	Y25	Z25	X26	Y26	Z26	X27	Y27	Z27	X28	Y28	Z28	X29	Y29	Z29	X30	Y30	Z30	X31	Y31	Z31	X32	Y32	Z32	X33	Y33	Z33	X34	Y34	Z34	X35	Y35	Z35	X36	Y36	Z36	X37	Y37	Z37	X38	Y38	Z38	X39	Y39	Z39	X40	Y40	Z40	X41	Y41	Z41	X42	Y42	Z42	X43	Y43	Z43	X44	Y44	Z44	X45	Y45	Z45	X46	Y46	Z46	X47	Y47	Z47	X48	Y48	Z48	X49	Y49	Z49	X50	Y50	Z50	
1751	8.7550	657.780358	1414.597815	-81.849681	652.169820	1419.198850	-383.879906	655.065363	1474.990930	-232.773888	627.887510	1330.752391	-240.979066	568.949101	1135.111543	54.210208	701.116884	913.397018	-75.506131	586.560241	1167.203594	-526.791074	708.018451	911.531097	-448.418155	87.307718	1250.015896	-242.437300	246.466464	1259.773413	-397.264778	242.032711	1229.059538	-76.022156	278.473243	1202.573338	-356.769498	278.687412	1174.001662	-124.710078	122.447782	1286.270244	-195.817268	119.068841	1296.881170	-268.757977	179.327298	1169.039803	-74.052601	202.149253	1182.578194	-436.042980	226.643564	1014.564935	-49.896324	263.537668	935.113291	-62.364177	258.432674	850.432033	-73.100615	297.141011	944.269187	-75.632660	282.918192	706.420276	-103.024691	263.658751	690.634299	-215.699513	234.082345	585.795486	-81.562738	231.686175	496.236607	-99.481601	183.998587	425.275675	-110.202389	264.183493	491.735225	-121.366314	150.562644	277.661113	-124.152233	176.151124	284.169791	-205.510894	85.531881	279.070104	-163.502696	350.543300	132.164422	-153.182821	279.698865	141.392462	-98.919031	261.471702	1122.803762	-449.056222	343.611957	1097.169715	-458.482274	363.723202	1124.421064	-443.136313	403.196851	1032.471050	-473.093431	516.102175	920.047168	-462.696549	548.188050	890.821350	-353.541342	452.367144	826.767311	-482.930411	405.497821	757.249279	-457.666230	327.037606	715.212021	-452.686775	425.655381	742.083969	-428.330249	214.772907	626.048626	-439.752669	211.359541	632.787633	-351.638436	131.851514	648.070695	-396.553665	381.247735	477.458791	-399.292487	303.772450	485.346889	-462.833072	-177.498422	938.927791	-279.165645	-3.158796	85.827179	-484.713957	-14.950648	80.462617	-84.238948	
1752	8.7600	656.185833	1414.757778	-81.704516	650.610480	1419.396715	-383.769480	653.436791	1475.088972	-232.610741	626.446742	1330.830323	-240.815493	568.517744	1134.930137	54.192568	701.098406	913.415667	-75.464555	586.042987	1167.160157	-526.431177	707.995599	911.582175	-448.387521	85.893430	1249.591280	-242.275517	245.049093	1259.686485	-397.283786	240.690125	1228.845471	-76.069211	277.078822	1202.456377	-356.918550	277.338916	1173.817537	-124.742415	120.956563	1285.847776	-195.772222	117.611380	1296.541114	-268.680580	178.024496	1168.730694	-74.008234	200.652738	1182.484098	-436.071029	225.349033	1014.261183	-50.037393	262.232616	934.878507	-62.518800	257.032461	850.188147	-73.429477	295.897943	944.097447	-75.594627	281.861529	706.271278	-103.286524	262.367293	690.455063	-215.935088	233.206349	585.621929	-81.800803	230.811429	496.061996	-99.737600	183.099368	425.029646	-110.393313	263.213207	491.535260	-121.702967	149.568186	277.455233	-124.286377	175.229519	283.994463	-205.667516	84.541598	278.688290	-163.603163	349.950411	132.439083	-153.231889	279.036469	141.575054	-98.958865	260.094395	1122.989071	-449.120381	342.341675	1097.665453	-458.664804	362.328698	1124.989519	-443.357731	402.135634	1033.113707	-473.378442	515.543642	921.026136	-463.141570	547.846144	891.925021	-354.028433	452.075054	827.728707	-483.479099	405.493004	757.944968	-457.999313	327.200470	715.687300	-452.841979	425.742020	742.773436	-428.600977	215.197800	626.014355	-439.712264	211.760473	632.788568	-351.584100	132.366909	647.990514	-396.476149	381.774005	477.062650	-398.762271	304.246999	485.322557	-462.805603	-177.504053	938.931813	-279.166792	-3.156565	85.819181	-484.720994	-14.947427	80.456248	-84.228788	
1753	8.7650	654.612945	1414.883371	-81.629698	649.047212	1419.677754	-383.690200	651.812833	1475.160613	-232.381090	624.970035	1330.945988	-240.777331	568.087363	1134.729086	54.188947	701.062674	913.429681	-75.438480	585.465853	1167.104680	-526.011199	707.965611	911.650384	-448.330661	84.465317	1249.186374	-242.265580	243.650190	1259.566716	-397.389768	239.336318	1228.618426	-76.152168	275.682342	1202.034598	-356.656290	275.982715	1173.603246	-124.919470	119.405875	1285.625182	-195.758759	116.112706	1296.258526	-268.616724	176.673257	1168.443066	-74.270587	199.179798	1182.422953	-436.196450	223.951945	1014.044896	-50.267320	260.902840	934.638125	-62.645964	255.806092	849.998561	-73.719160	294.595968	943.858800	-75.633483	280.877276	706.167833	-103.568081	261.123053	690.361682	-216.151883	232.390493	585.440640	-82.016373	229.991789	495.879659	-99.986160	182.326373	424.910916	-110.563504	262.469736	491.406420	-121.931364	148.921220	277.341870	-124.341211	174.453563	283.762409	-205.761023	83.773982	278.419139	-163.704928	349.502250	132.615079	-153.261841	278.553224	141.731542	-98.995721	258.770245	1123.086262	-449.256246	341.022688	1098.039453	-458.887751	361.012489	1125.414488	-443.451894	401.086441	1033.750473	-473.646128	514.840076	921.965848	-463.546106	547.071944	893.621130	-354.125251	451.716616	828.599171	-483.841880	405.423420	758.643156	-458.324160	327.232818	716.085798	-453.035873	425.753114	743.498985	-428.965737	215.491116	625.995789	-439.695587	212.019213	632.780631	-351.565401	132.696251	647.913384	-396.404739	382.187949	477.112872	-398.764184	304.617851	485.300109	-462.812361	-177.498125	938.932669	-279.128463	-3.164976	85.822685	-484.706060	-14.954936	80.485826	-84.248753	
1754	8.7700	653.017644	1414.930628	-81.554165	647.574367	1419.888126	-383.544666	650.239012	1475.352552	-232.358881	623.562892	1331.059554	-240.692831	567.622811	1134.605883	54.196096	701.024123	913.460666	-75.394403	584.895172	1167.095635	-525.686380	707.946776	911.709010	-448.337222	83.035555	1248.865019	-242.379196	242.333395	1259.465466	-397.444022	237.927901	1228.394803	-76.284794	274.289914	1201.962947	-356.752290	274.592010	1173.528459	-124.941960	117.932095	1285.330982	-195.757447	114.652552	1295.938536	-268.620583	175.239698	1168.274420	-74.348277	197.795183	1182.377363	-436.253041	222.604127	1013.850765	-50.409327	259.657417	934.473724	-62.783826	254.675218	849.840759	-73.982630	293.377064	943.767687	-75.680424	280.015873	706.136014	-103.785063	259.998028	690.375307	-216.398432	231.663278	585.313762	-82.232871	229.296782	495.761082	-100.211320	181.633397	424.768044	-110.731962	261.664693	491.292899	-122.187274	148.324717	277.171668	-124.396142	173.826006	283.599443	-205.867049	83.175435	278.164438	-163.751623	349.192786	132.808124	-153.234098	278.232480	141.875523	-98.996723	257.468390	1123.241747	-449.413306	339.825884	1098.436874	-458.999199	359.680340	1125.839206	-443.616796	400.033335	1034.376144	-473.934375	514.171337	922.795255	-463.952182	546.531080	894.602530	-354.619132	451.265401	829.413807	-484.163938	405.156992	759.235863	-458.600830	327.109635	716.508586	-453.253029	425.652283	744.174230	-429.331597	215.670329	625.972028	-439.700377	212.187192	632.774878	-351.540631	132.887406	647.852999	-396.386610	382.446577	477.145963	-398.760461	304.892431	485.288590	-462.796677	-177.501416	938.921143	-279.109514	-3.151051	85.838387	-484.714566	-14.953037	80.484164	-84.244856	
1755	8.7750	651.445276	1415.101751	-81.484470	646.111347	1420.068673	-383.452992	648.644841	1475.546092	-232.239203	622.133276	1331.295009	-240.603930	567.084625	1134.389461	54.142646	701.007591	913.471772	-75.327750	584.383355	1167.105826	-525.406335	707.957359	911.778621	-448.336215	81.589534	1248.542131	-242.384255	240.963916	1259.376821	-397.561597	236.422089	1228.250229	-76.350087	272.959582	1201.960918	-356.879290	273.171920	1173.381808	-125.066132	116.512436	1285.031888	-195.899327	113.200771	1295.644563	-268.651185	173.800616	1168.097144	-74.477255	196.425421	1182.329182	-436.416720	221.204576	1013.800009	-50.548351	258.364319	934.374531	-63.069477	253.520325	849.685037	-74.236101	292.052501	943.676314	-75.986837	279.180916	706.083930	-104.069630	259.043019	690.322628	-216.545993	231.048771	585.212136	-82.392594	228.741774	495.694983	-100.333492	181.112217	424.626943	-110.849046	261.137436	491.213100	-122.312810	147.919658	277.035742	-124.494373	173.407193	283.460171	-205.960517	82.747026	277.874263	-163.806352	349.010775	133.082414	-153.221569	278.055525	141.980558	-99.005914	256.195080	1123.399412	-449.496561	338.550809	1098.848578	-459.197105	358.361995	1126.323942	-443.759472	398.950948	1034.924592	-474.207523	513.389280	923.613915	-464.299060	545.854245	895.256674	-355.049431	450.700814	830.143610	-484.476556	404.845754	759.856880	-458.971739	326.882217	716.935965	-453.457318	425.380868	744.718960	-429.691191	215.718278	625.940335	-439.734870	212.222456	632.793316	-351.550745	132.932696	647.805611	-396.391342	382.564491	477.197388	-398.753117	305.015952	485.300873	-462.805549	-177.500121	938.927519	-279.125915	-3.158577	85.844705	-484.713085	-14.952579	80.480264	-84.241533	
